<mxfile host="app.diagrams.net" modified="2021-03-22T22:25:15.498Z" agent="5.0 (Windows NT 10.0; Win64; x64) AppleWebKit/537.36 (KHTML, like Gecko) Chrome/89.0.4389.90 Safari/537.36" etag="qKGhVwZp_-y2O5t4Scvg" version="14.4.9" type="github">
  <diagram id="IibwhsUdMYKJf8pqr-UW" name="Page-1">
    <mxGraphModel dx="1252" dy="643" grid="1" gridSize="10" guides="1" tooltips="1" connect="1" arrows="1" fold="1" page="1" pageScale="1" pageWidth="827" pageHeight="1169" math="0" shadow="0">
      <root>
        <mxCell id="0" />
        <mxCell id="1" parent="0" />
        <mxCell id="SDGDesWbccRSjYrfOrNV-1" value="" style="rounded=0;whiteSpace=wrap;html=1;fillColor=#d5e8d4;strokeColor=#82b366;" parent="1" vertex="1">
          <mxGeometry x="80" y="80" width="640" height="390" as="geometry" />
        </mxCell>
        <mxCell id="SDGDesWbccRSjYrfOrNV-2" value="Login" style="rounded=1;whiteSpace=wrap;html=1;fillColor=#f5f5f5;strokeColor=#666666;fontColor=#333333;" parent="1" vertex="1">
          <mxGeometry x="280" y="210" width="240" height="40" as="geometry" />
        </mxCell>
        <mxCell id="SDGDesWbccRSjYrfOrNV-3" value="Mot de passe" style="rounded=1;whiteSpace=wrap;html=1;fillColor=#fff2cc;strokeColor=#d6b656;" parent="1" vertex="1">
          <mxGeometry x="280" y="270" width="240" height="40" as="geometry" />
        </mxCell>
        <mxCell id="SDGDesWbccRSjYrfOrNV-4" value="Se connecter" style="ellipse;whiteSpace=wrap;html=1;" parent="1" vertex="1">
          <mxGeometry x="280" y="150" width="230" height="50" as="geometry" />
        </mxCell>
        <mxCell id="SDGDesWbccRSjYrfOrNV-5" value="" style="triangle;whiteSpace=wrap;html=1;fillColor=#a20025;strokeColor=#6F0000;fontColor=#ffffff;" parent="1" vertex="1">
          <mxGeometry x="394" y="320" width="40" height="40" as="geometry" />
        </mxCell>
        <mxCell id="SDGDesWbccRSjYrfOrNV-6" value="Sutura" style="ellipse;whiteSpace=wrap;html=1;fillColor=#f8cecc;strokeColor=#b85450;" parent="1" vertex="1">
          <mxGeometry x="80" y="80" width="120" height="80" as="geometry" />
        </mxCell>
        <mxCell id="SDGDesWbccRSjYrfOrNV-7" value="Pour se connecter, il faut devenir membre en satisfaisant toutes les modalités (accepter les conditions générales et soumettre un dossier complet valide).&lt;br&gt;Les informations de connexion seront envoyés aux nouveaux membres dans les meilleurs délais." style="ellipse;shape=cloud;whiteSpace=wrap;html=1;" parent="1" vertex="1">
          <mxGeometry x="80" y="360" width="650" height="100" as="geometry" />
        </mxCell>
        <mxCell id="SDGDesWbccRSjYrfOrNV-8" value="" style="rounded=0;whiteSpace=wrap;html=1;fillColor=#eeeeee;strokeColor=#36393d;" parent="1" vertex="1">
          <mxGeometry x="68" y="530" width="630" height="700" as="geometry" />
        </mxCell>
        <mxCell id="SDGDesWbccRSjYrfOrNV-9" value="BIENVENUE DANS L&#39;ESPACE D&#39;INSCRIPTION" style="rounded=1;whiteSpace=wrap;html=1;fillColor=#6a00ff;strokeColor=#3700CC;fontColor=#ffffff;" parent="1" vertex="1">
          <mxGeometry x="264" y="550" width="380" height="60" as="geometry" />
        </mxCell>
        <mxCell id="SDGDesWbccRSjYrfOrNV-10" value="Sutura" style="ellipse;whiteSpace=wrap;html=1;fillColor=#f8cecc;strokeColor=#b85450;" parent="1" vertex="1">
          <mxGeometry x="101" y="550" width="120" height="80" as="geometry" />
        </mxCell>
        <mxCell id="SDGDesWbccRSjYrfOrNV-11" value="Prénom(s)" style="rounded=1;whiteSpace=wrap;html=1;" parent="1" vertex="1">
          <mxGeometry x="271" y="650" width="226" height="30" as="geometry" />
        </mxCell>
        <mxCell id="SDGDesWbccRSjYrfOrNV-12" value="Nom" style="rounded=1;whiteSpace=wrap;html=1;" parent="1" vertex="1">
          <mxGeometry x="271" y="690" width="226" height="30" as="geometry" />
        </mxCell>
        <mxCell id="SDGDesWbccRSjYrfOrNV-13" value="Pays d&#39;origine(liste déroulante)" style="rounded=1;whiteSpace=wrap;html=1;" parent="1" vertex="1">
          <mxGeometry x="272" y="770" width="226" height="30" as="geometry" />
        </mxCell>
        <mxCell id="SDGDesWbccRSjYrfOrNV-14" value="Ville d&#39;études(liste déroulante)" style="rounded=1;whiteSpace=wrap;html=1;" parent="1" vertex="1">
          <mxGeometry x="272" y="810" width="226" height="30" as="geometry" />
        </mxCell>
        <mxCell id="SDGDesWbccRSjYrfOrNV-16" value="Établissement d&#39;études" style="rounded=1;whiteSpace=wrap;html=1;" parent="1" vertex="1">
          <mxGeometry x="272" y="850" width="226" height="30" as="geometry" />
        </mxCell>
        <mxCell id="SDGDesWbccRSjYrfOrNV-17" value="Filière" style="rounded=1;whiteSpace=wrap;html=1;" parent="1" vertex="1">
          <mxGeometry x="271" y="890" width="226" height="30" as="geometry" />
        </mxCell>
        <mxCell id="SDGDesWbccRSjYrfOrNV-18" value="Nombre d&#39;années au Maroc(liste déroulante de 1 - 10)" style="rounded=1;whiteSpace=wrap;html=1;" parent="1" vertex="1">
          <mxGeometry x="270" y="930" width="226" height="30" as="geometry" />
        </mxCell>
        <mxCell id="SDGDesWbccRSjYrfOrNV-19" value="N° de téléphone" style="rounded=1;whiteSpace=wrap;html=1;" parent="1" vertex="1">
          <mxGeometry x="270" y="970" width="226" height="30" as="geometry" />
        </mxCell>
        <mxCell id="SDGDesWbccRSjYrfOrNV-20" value="Email" style="rounded=1;whiteSpace=wrap;html=1;" parent="1" vertex="1">
          <mxGeometry x="270" y="1010" width="226" height="30" as="geometry" />
        </mxCell>
        <mxCell id="SDGDesWbccRSjYrfOrNV-24" value="ENVOYER" style="rounded=1;whiteSpace=wrap;html=1;fillColor=#ffcccc;strokeColor=#36393d;" parent="1" vertex="1">
          <mxGeometry x="420" y="1110" width="77" height="31" as="geometry" />
        </mxCell>
        <mxCell id="SDGDesWbccRSjYrfOrNV-25" value="" style="rounded=0;whiteSpace=wrap;html=1;fillColor=#a20025;strokeColor=#6F0000;fontColor=#ffffff;" parent="1" vertex="1">
          <mxGeometry x="271" y="1050" width="20" height="11" as="geometry" />
        </mxCell>
        <mxCell id="SDGDesWbccRSjYrfOrNV-27" value="Accepter les conditions générales d&#39;utilisation" style="rounded=0;whiteSpace=wrap;html=1;fillColor=#60a917;strokeColor=#2D7600;fontColor=#ffffff;" parent="1" vertex="1">
          <mxGeometry x="310" y="1070" width="190" height="30" as="geometry" />
        </mxCell>
        <mxCell id="SDGDesWbccRSjYrfOrNV-28" value="Lire les conditions générales d&#39;utilisation-ceci est un lien qui fait ouvrir un autre onglet du navigateur" style="rounded=0;whiteSpace=wrap;html=1;fillColor=#1ba1e2;strokeColor=#006EAF;fontColor=#ffffff;" parent="1" vertex="1">
          <mxGeometry x="501.5" y="1150" width="190" height="60" as="geometry" />
        </mxCell>
        <mxCell id="SDGDesWbccRSjYrfOrNV-29" value="" style="rounded=0;whiteSpace=wrap;html=1;gradientColor=#b3b3b3;fillColor=#f5f5f5;strokeColor=#666666;" parent="1" vertex="1">
          <mxGeometry x="75" y="1280" width="630" height="680" as="geometry" />
        </mxCell>
        <mxCell id="SDGDesWbccRSjYrfOrNV-30" value="Accueil" style="rounded=1;whiteSpace=wrap;html=1;fillColor=#60a917;strokeColor=#2D7600;fontColor=#ffffff;" parent="1" vertex="1">
          <mxGeometry x="90" y="1290" width="110" height="30" as="geometry" />
        </mxCell>
        <mxCell id="SDGDesWbccRSjYrfOrNV-31" value="Faire un prêt" style="rounded=1;whiteSpace=wrap;html=1;fillColor=#1ba1e2;strokeColor=#006EAF;fontColor=#ffffff;" parent="1" vertex="1">
          <mxGeometry x="210" y="1290" width="110" height="30" as="geometry" />
        </mxCell>
        <mxCell id="SDGDesWbccRSjYrfOrNV-32" value="Déclarer un remboursement" style="rounded=1;whiteSpace=wrap;html=1;fillColor=#d80073;strokeColor=#A50040;fontColor=#ffffff;" parent="1" vertex="1">
          <mxGeometry x="330" y="1290" width="110" height="30" as="geometry" />
        </mxCell>
        <mxCell id="SDGDesWbccRSjYrfOrNV-33" value="Messagerie" style="rounded=1;whiteSpace=wrap;html=1;fillColor=#a20025;strokeColor=#6F0000;fontColor=#ffffff;" parent="1" vertex="1">
          <mxGeometry x="450" y="1290" width="110" height="30" as="geometry" />
        </mxCell>
        <mxCell id="SDGDesWbccRSjYrfOrNV-34" value="Déconnexion" style="rounded=1;whiteSpace=wrap;html=1;fillColor=#fa6800;strokeColor=#C73500;fontColor=#ffffff;" parent="1" vertex="1">
          <mxGeometry x="570" y="1290" width="110" height="30" as="geometry" />
        </mxCell>
        <mxCell id="SDGDesWbccRSjYrfOrNV-35" value="Bonjour/Bonsoir Ambroise" style="rounded=1;whiteSpace=wrap;html=1;fillColor=#fff2cc;strokeColor=#d6b656;gradientColor=#ffd966;" parent="1" vertex="1">
          <mxGeometry x="170" y="1330" width="430" height="40" as="geometry" />
        </mxCell>
        <mxCell id="SDGDesWbccRSjYrfOrNV-36" value="État de la caisse&amp;nbsp;" style="rounded=0;whiteSpace=wrap;html=1;fillColor=#e51400;strokeColor=#B20000;fontColor=#ffffff;" parent="1" vertex="1">
          <mxGeometry x="149" y="1390" width="180" height="30" as="geometry" />
        </mxCell>
        <mxCell id="SDGDesWbccRSjYrfOrNV-37" value="" style="rounded=0;whiteSpace=wrap;html=1;fillColor=#60a917;strokeColor=#2D7600;fontColor=#ffffff;" parent="1" vertex="1">
          <mxGeometry x="150" y="1430" width="40" height="30" as="geometry" />
        </mxCell>
        <mxCell id="SDGDesWbccRSjYrfOrNV-38" value="" style="rounded=0;whiteSpace=wrap;html=1;fillColor=#60a917;strokeColor=#2D7600;fontColor=#ffffff;" parent="1" vertex="1">
          <mxGeometry x="189" y="1430" width="40" height="30" as="geometry" />
        </mxCell>
        <mxCell id="SDGDesWbccRSjYrfOrNV-39" value="" style="rounded=0;whiteSpace=wrap;html=1;fillColor=#d80073;strokeColor=#A50040;fontColor=#ffffff;" parent="1" vertex="1">
          <mxGeometry x="229" y="1430" width="40" height="30" as="geometry" />
        </mxCell>
        <mxCell id="SDGDesWbccRSjYrfOrNV-40" value="" style="rounded=0;whiteSpace=wrap;html=1;fillColor=#d80073;strokeColor=#A50040;fontColor=#ffffff;" parent="1" vertex="1">
          <mxGeometry x="269" y="1430" width="40" height="30" as="geometry" />
        </mxCell>
        <mxCell id="SDGDesWbccRSjYrfOrNV-41" value="&lt;i&gt;&lt;u&gt;Messagerie&lt;br&gt;&lt;/u&gt;&lt;/i&gt;&lt;br&gt;Monsieur TINE, veuillez vous acquitter du paiement car votre échéance approche" style="rounded=0;whiteSpace=wrap;html=1;fillColor=#f9f7ed;strokeColor=#36393d;" parent="1" vertex="1">
          <mxGeometry x="154" y="1490" width="240" height="90" as="geometry" />
        </mxCell>
        <mxCell id="SDGDesWbccRSjYrfOrNV-42" value="Faire un prêt" style="rounded=0;whiteSpace=wrap;html=1;fillColor=#e51400;strokeColor=#B20000;fontColor=#ffffff;" parent="1" vertex="1">
          <mxGeometry x="155" y="1620" width="250" height="40" as="geometry" />
        </mxCell>
        <mxCell id="SDGDesWbccRSjYrfOrNV-43" value="Nombre de prêt" style="rounded=0;whiteSpace=wrap;html=1;" parent="1" vertex="1">
          <mxGeometry x="420" y="1475" width="180" height="20" as="geometry" />
        </mxCell>
        <mxCell id="SDGDesWbccRSjYrfOrNV-45" value="2" style="rounded=0;whiteSpace=wrap;html=1;" parent="1" vertex="1">
          <mxGeometry x="610" y="1475" width="40" height="20" as="geometry" />
        </mxCell>
        <mxCell id="SDGDesWbccRSjYrfOrNV-46" value="Remboursement" style="rounded=0;whiteSpace=wrap;html=1;" parent="1" vertex="1">
          <mxGeometry x="420" y="1500" width="180" height="20" as="geometry" />
        </mxCell>
        <mxCell id="SDGDesWbccRSjYrfOrNV-47" value="1/2" style="rounded=0;whiteSpace=wrap;html=1;" parent="1" vertex="1">
          <mxGeometry x="610" y="1500" width="40" height="20" as="geometry" />
        </mxCell>
        <mxCell id="SDGDesWbccRSjYrfOrNV-49" value="Échéance" style="rounded=0;whiteSpace=wrap;html=1;" parent="1" vertex="1">
          <mxGeometry x="420" y="1525" width="80" height="20" as="geometry" />
        </mxCell>
        <mxCell id="SDGDesWbccRSjYrfOrNV-50" value="10/04/2021" style="rounded=0;whiteSpace=wrap;html=1;" parent="1" vertex="1">
          <mxGeometry x="550" y="1525" width="101.5" height="20" as="geometry" />
        </mxCell>
        <mxCell id="SDGDesWbccRSjYrfOrNV-51" value="Montant souhaité" style="rounded=0;whiteSpace=wrap;html=1;" parent="1" vertex="1">
          <mxGeometry x="149" y="1673.5" width="110" height="40" as="geometry" />
        </mxCell>
        <mxCell id="SDGDesWbccRSjYrfOrNV-53" value="Santé/Autres urgences" style="rounded=0;whiteSpace=wrap;html=1;" parent="1" vertex="1">
          <mxGeometry x="275" y="1673.5" width="130" height="40" as="geometry" />
        </mxCell>
        <mxCell id="SDGDesWbccRSjYrfOrNV-54" value="Échéance" style="rounded=0;whiteSpace=wrap;html=1;" parent="1" vertex="1">
          <mxGeometry x="149" y="1720" width="130" height="40" as="geometry" />
        </mxCell>
        <mxCell id="SDGDesWbccRSjYrfOrNV-57" value="Envoyer" style="rounded=1;whiteSpace=wrap;html=1;" parent="1" vertex="1">
          <mxGeometry x="314" y="1910" width="96" height="30" as="geometry" />
        </mxCell>
        <mxCell id="SDGDesWbccRSjYrfOrNV-58" value="Demande en cours de traitement" style="rounded=0;whiteSpace=wrap;html=1;" parent="1" vertex="1">
          <mxGeometry x="420" y="1550" width="130" height="30" as="geometry" />
        </mxCell>
        <mxCell id="SDGDesWbccRSjYrfOrNV-59" value="Néant" style="rounded=0;whiteSpace=wrap;html=1;" parent="1" vertex="1">
          <mxGeometry x="571.5" y="1550" width="80" height="30" as="geometry" />
        </mxCell>
        <mxCell id="SDGDesWbccRSjYrfOrNV-60" value="Déclarer un remboursement" style="rounded=0;whiteSpace=wrap;html=1;fillColor=#e51400;strokeColor=#B20000;fontColor=#ffffff;" parent="1" vertex="1">
          <mxGeometry x="424" y="1660" width="230" height="40" as="geometry" />
        </mxCell>
        <mxCell id="SDGDesWbccRSjYrfOrNV-61" value="Date&amp;nbsp;" style="rounded=1;whiteSpace=wrap;html=1;" parent="1" vertex="1">
          <mxGeometry x="530" y="1713.5" width="120" height="36.5" as="geometry" />
        </mxCell>
        <mxCell id="SDGDesWbccRSjYrfOrNV-62" value="Joindre un justificatif" style="rounded=1;whiteSpace=wrap;html=1;" parent="1" vertex="1">
          <mxGeometry x="531.5" y="1754" width="120" height="30" as="geometry" />
        </mxCell>
        <mxCell id="SDGDesWbccRSjYrfOrNV-63" value="Envoyer" style="rounded=1;whiteSpace=wrap;html=1;" parent="1" vertex="1">
          <mxGeometry x="554" y="1790" width="96" height="30" as="geometry" />
        </mxCell>
        <mxCell id="SDGDesWbccRSjYrfOrNV-66" value="Accueil" style="rounded=1;whiteSpace=wrap;html=1;fillColor=#60a917;strokeColor=#2D7600;fontColor=#ffffff;" parent="1" vertex="1">
          <mxGeometry x="90" y="1290" width="110" height="30" as="geometry" />
        </mxCell>
        <mxCell id="SDGDesWbccRSjYrfOrNV-67" value="Faire un prêt" style="rounded=1;whiteSpace=wrap;html=1;fillColor=#1ba1e2;strokeColor=#006EAF;fontColor=#ffffff;" parent="1" vertex="1">
          <mxGeometry x="210" y="1290" width="110" height="30" as="geometry" />
        </mxCell>
        <mxCell id="SDGDesWbccRSjYrfOrNV-68" value="Déclarer un remboursement" style="rounded=1;whiteSpace=wrap;html=1;fillColor=#d80073;strokeColor=#A50040;fontColor=#ffffff;" parent="1" vertex="1">
          <mxGeometry x="330" y="1290" width="110" height="30" as="geometry" />
        </mxCell>
        <mxCell id="SDGDesWbccRSjYrfOrNV-69" value="Messagerie" style="rounded=1;whiteSpace=wrap;html=1;fillColor=#a20025;strokeColor=#6F0000;fontColor=#ffffff;" parent="1" vertex="1">
          <mxGeometry x="450" y="1290" width="110" height="30" as="geometry" />
        </mxCell>
        <mxCell id="SDGDesWbccRSjYrfOrNV-70" value="Accueil" style="rounded=1;whiteSpace=wrap;html=1;fillColor=#60a917;strokeColor=#2D7600;fontColor=#ffffff;" parent="1" vertex="1">
          <mxGeometry x="90" y="1290" width="110" height="30" as="geometry" />
        </mxCell>
        <mxCell id="SDGDesWbccRSjYrfOrNV-71" value="Faire un prêt" style="rounded=1;whiteSpace=wrap;html=1;fillColor=#1ba1e2;strokeColor=#006EAF;fontColor=#ffffff;" parent="1" vertex="1">
          <mxGeometry x="210" y="1290" width="110" height="30" as="geometry" />
        </mxCell>
        <mxCell id="SDGDesWbccRSjYrfOrNV-72" value="Déclarer un remboursement" style="rounded=1;whiteSpace=wrap;html=1;fillColor=#d80073;strokeColor=#A50040;fontColor=#ffffff;" parent="1" vertex="1">
          <mxGeometry x="330" y="1290" width="110" height="30" as="geometry" />
        </mxCell>
        <mxCell id="SDGDesWbccRSjYrfOrNV-73" value="Messagerie" style="rounded=1;whiteSpace=wrap;html=1;fillColor=#a20025;strokeColor=#6F0000;fontColor=#ffffff;" parent="1" vertex="1">
          <mxGeometry x="450" y="1290" width="110" height="30" as="geometry" />
        </mxCell>
        <mxCell id="SDGDesWbccRSjYrfOrNV-74" value="Déconnexion" style="rounded=1;whiteSpace=wrap;html=1;fillColor=#fa6800;strokeColor=#C73500;fontColor=#ffffff;" parent="1" vertex="1">
          <mxGeometry x="570" y="1290" width="110" height="30" as="geometry" />
        </mxCell>
        <mxCell id="SDGDesWbccRSjYrfOrNV-75" value="Bonjour/Bonsoir Ambroise" style="rounded=1;whiteSpace=wrap;html=1;fillColor=#fff2cc;strokeColor=#d6b656;gradientColor=#ffd966;" parent="1" vertex="1">
          <mxGeometry x="170" y="1330" width="430" height="40" as="geometry" />
        </mxCell>
        <mxCell id="SDGDesWbccRSjYrfOrNV-80" value="&lt;i&gt;&lt;u&gt;Messagerie&lt;br&gt;&lt;/u&gt;&lt;/i&gt;&lt;br&gt;Monsieur TINE, veuillez vous acquitter du paiement car votre échéance approche" style="rounded=0;whiteSpace=wrap;html=1;fillColor=#f9f7ed;strokeColor=#36393d;" parent="1" vertex="1">
          <mxGeometry x="154" y="1490" width="240" height="90" as="geometry" />
        </mxCell>
        <mxCell id="SDGDesWbccRSjYrfOrNV-85" value="Accueil" style="rounded=1;whiteSpace=wrap;html=1;fillColor=#60a917;strokeColor=#2D7600;fontColor=#ffffff;" parent="1" vertex="1">
          <mxGeometry x="90" y="1290" width="110" height="30" as="geometry" />
        </mxCell>
        <mxCell id="SDGDesWbccRSjYrfOrNV-86" value="Faire un prêt" style="rounded=1;whiteSpace=wrap;html=1;fillColor=#1ba1e2;strokeColor=#006EAF;fontColor=#ffffff;" parent="1" vertex="1">
          <mxGeometry x="210" y="1290" width="110" height="30" as="geometry" />
        </mxCell>
        <mxCell id="SDGDesWbccRSjYrfOrNV-87" value="Déclarer un remboursement" style="rounded=1;whiteSpace=wrap;html=1;fillColor=#d80073;strokeColor=#A50040;fontColor=#ffffff;" parent="1" vertex="1">
          <mxGeometry x="330" y="1290" width="110" height="30" as="geometry" />
        </mxCell>
        <mxCell id="SDGDesWbccRSjYrfOrNV-88" value="Messagerie" style="rounded=1;whiteSpace=wrap;html=1;fillColor=#a20025;strokeColor=#6F0000;fontColor=#ffffff;" parent="1" vertex="1">
          <mxGeometry x="450" y="1290" width="110" height="30" as="geometry" />
        </mxCell>
        <mxCell id="SDGDesWbccRSjYrfOrNV-89" value="Déconnexion" style="rounded=1;whiteSpace=wrap;html=1;fillColor=#fa6800;strokeColor=#C73500;fontColor=#ffffff;" parent="1" vertex="1">
          <mxGeometry x="570" y="1290" width="110" height="30" as="geometry" />
        </mxCell>
        <mxCell id="SDGDesWbccRSjYrfOrNV-90" value="Bonjour/Bonsoir Ambroise" style="rounded=1;whiteSpace=wrap;html=1;fillColor=#fff2cc;strokeColor=#d6b656;gradientColor=#ffd966;" parent="1" vertex="1">
          <mxGeometry x="170" y="1330" width="430" height="40" as="geometry" />
        </mxCell>
        <mxCell id="SDGDesWbccRSjYrfOrNV-95" value="&lt;i&gt;&lt;u&gt;Messagerie&lt;br&gt;&lt;/u&gt;&lt;/i&gt;&lt;br&gt;Monsieur TINE, veuillez vous acquitter du paiement car votre échéance approche" style="rounded=0;whiteSpace=wrap;html=1;fillColor=#f9f7ed;strokeColor=#36393d;" parent="1" vertex="1">
          <mxGeometry x="154" y="1490" width="240" height="90" as="geometry" />
        </mxCell>
        <mxCell id="SDGDesWbccRSjYrfOrNV-103" value="Faire un prêt" style="rounded=0;whiteSpace=wrap;html=1;fillColor=#e51400;strokeColor=#B20000;fontColor=#ffffff;" parent="1" vertex="1">
          <mxGeometry x="155" y="1620" width="250" height="40" as="geometry" />
        </mxCell>
        <mxCell id="SDGDesWbccRSjYrfOrNV-108" value="Accueil" style="rounded=1;whiteSpace=wrap;html=1;fillColor=#60a917;strokeColor=#2D7600;fontColor=#ffffff;" parent="1" vertex="1">
          <mxGeometry x="90" y="1290" width="110" height="30" as="geometry" />
        </mxCell>
        <mxCell id="SDGDesWbccRSjYrfOrNV-109" value="Faire un prêt" style="rounded=1;whiteSpace=wrap;html=1;fillColor=#1ba1e2;strokeColor=#006EAF;fontColor=#ffffff;" parent="1" vertex="1">
          <mxGeometry x="210" y="1290" width="110" height="30" as="geometry" />
        </mxCell>
        <mxCell id="SDGDesWbccRSjYrfOrNV-110" value="Déclarer un remboursement" style="rounded=1;whiteSpace=wrap;html=1;fillColor=#d80073;strokeColor=#A50040;fontColor=#ffffff;" parent="1" vertex="1">
          <mxGeometry x="330" y="1290" width="110" height="30" as="geometry" />
        </mxCell>
        <mxCell id="SDGDesWbccRSjYrfOrNV-111" value="Messagerie" style="rounded=1;whiteSpace=wrap;html=1;fillColor=#a20025;strokeColor=#6F0000;fontColor=#ffffff;" parent="1" vertex="1">
          <mxGeometry x="450" y="1290" width="110" height="30" as="geometry" />
        </mxCell>
        <mxCell id="SDGDesWbccRSjYrfOrNV-112" value="Déconnexion" style="rounded=1;whiteSpace=wrap;html=1;fillColor=#fa6800;strokeColor=#C73500;fontColor=#ffffff;" parent="1" vertex="1">
          <mxGeometry x="570" y="1290" width="110" height="30" as="geometry" />
        </mxCell>
        <mxCell id="SDGDesWbccRSjYrfOrNV-113" value="Bonjour/Bonsoir Ambroise" style="rounded=1;whiteSpace=wrap;html=1;fillColor=#fff2cc;strokeColor=#d6b656;gradientColor=#ffd966;" parent="1" vertex="1">
          <mxGeometry x="150" y="1330" width="500" height="40" as="geometry" />
        </mxCell>
        <mxCell id="SDGDesWbccRSjYrfOrNV-118" value="&lt;i&gt;&lt;u&gt;Messagerie&lt;br&gt;&lt;/u&gt;&lt;/i&gt;&lt;br&gt;Monsieur TINE, veuillez vous acquitter du paiement car votre échéance approche" style="rounded=0;whiteSpace=wrap;html=1;fillColor=#f9f7ed;strokeColor=#36393d;" parent="1" vertex="1">
          <mxGeometry x="150" y="1490" width="250" height="120" as="geometry" />
        </mxCell>
        <mxCell id="SDGDesWbccRSjYrfOrNV-126" value="Faire un prêt" style="rounded=0;whiteSpace=wrap;html=1;fillColor=#e51400;strokeColor=#B20000;fontColor=#ffffff;" parent="1" vertex="1">
          <mxGeometry x="150" y="1620" width="255" height="40" as="geometry" />
        </mxCell>
        <mxCell id="SDGDesWbccRSjYrfOrNV-132" value="Justificatifs-pas obligatoire" style="rounded=0;whiteSpace=wrap;html=1;" parent="1" vertex="1">
          <mxGeometry x="299" y="1720" width="106" height="40" as="geometry" />
        </mxCell>
        <mxCell id="SDGDesWbccRSjYrfOrNV-133" value="Commentaires" style="rounded=0;whiteSpace=wrap;html=1;" parent="1" vertex="1">
          <mxGeometry x="149" y="1820" width="256" height="61" as="geometry" />
        </mxCell>
        <mxCell id="SDGDesWbccRSjYrfOrNV-135" value="Sutura" style="ellipse;whiteSpace=wrap;html=1;fillColor=#f8cecc;strokeColor=#b85450;" parent="1" vertex="1">
          <mxGeometry x="530" y="1830" width="120" height="80" as="geometry" />
        </mxCell>
        <mxCell id="SDGDesWbccRSjYrfOrNV-136" value="" style="rounded=0;whiteSpace=wrap;html=1;gradientColor=#b3b3b3;fillColor=#f5f5f5;strokeColor=#666666;" parent="1" vertex="1">
          <mxGeometry x="75" y="1970" width="640" height="1480" as="geometry" />
        </mxCell>
        <mxCell id="SDGDesWbccRSjYrfOrNV-139" value="Adhérents" style="rounded=1;whiteSpace=wrap;html=1;fillColor=#76608a;strokeColor=#432D57;fontColor=#ffffff;" parent="1" vertex="1">
          <mxGeometry x="94" y="1990" width="76" height="30" as="geometry" />
        </mxCell>
        <mxCell id="SDGDesWbccRSjYrfOrNV-140" value="Messagerie" style="rounded=1;whiteSpace=wrap;html=1;fillColor=#f0a30a;strokeColor=#BD7000;fontColor=#ffffff;" parent="1" vertex="1">
          <mxGeometry x="179" y="1990" width="70" height="30" as="geometry" />
        </mxCell>
        <mxCell id="SDGDesWbccRSjYrfOrNV-141" value="Statistiques" style="rounded=1;whiteSpace=wrap;html=1;fillColor=#0050ef;strokeColor=#001DBC;fontColor=#ffffff;" parent="1" vertex="1">
          <mxGeometry x="260" y="1990" width="70" height="30" as="geometry" />
        </mxCell>
        <mxCell id="SDGDesWbccRSjYrfOrNV-157" value="Tableau de bord" style="rounded=0;whiteSpace=wrap;html=1;fillColor=#e51400;strokeColor=#B20000;fontColor=#ffffff;" parent="1" vertex="1">
          <mxGeometry x="420" y="1390" width="230" height="30" as="geometry" />
        </mxCell>
        <mxCell id="SDGDesWbccRSjYrfOrNV-165" value="Tableau de bord/Résumé" style="rounded=0;whiteSpace=wrap;html=1;fillColor=#e51400;strokeColor=#B20000;fontColor=#ffffff;" parent="1" vertex="1">
          <mxGeometry x="455" y="2050" width="230" height="30" as="geometry" />
        </mxCell>
        <mxCell id="SDGDesWbccRSjYrfOrNV-166" value="Nombres d&#39;adhérents" style="rounded=0;whiteSpace=wrap;html=1;" parent="1" vertex="1">
          <mxGeometry x="455" y="2090" width="174" height="30" as="geometry" />
        </mxCell>
        <mxCell id="SDGDesWbccRSjYrfOrNV-167" value="300" style="rounded=0;whiteSpace=wrap;html=1;" parent="1" vertex="1">
          <mxGeometry x="650" y="2090" width="40" height="30" as="geometry" />
        </mxCell>
        <mxCell id="SDGDesWbccRSjYrfOrNV-168" value="Nombre de prêts" style="rounded=0;whiteSpace=wrap;html=1;" parent="1" vertex="1">
          <mxGeometry x="455" y="2170" width="180" height="30" as="geometry" />
        </mxCell>
        <mxCell id="SDGDesWbccRSjYrfOrNV-207" value="" style="edgeStyle=orthogonalEdgeStyle;rounded=0;orthogonalLoop=1;jettySize=auto;html=1;fillColor=#76608a;strokeColor=#432D57;exitX=0.5;exitY=1;exitDx=0;exitDy=0;" parent="1" source="SDGDesWbccRSjYrfOrNV-202" target="SDGDesWbccRSjYrfOrNV-206" edge="1">
          <mxGeometry relative="1" as="geometry">
            <Array as="points">
              <mxPoint x="210" y="2470" />
              <mxPoint x="360" y="2470" />
              <mxPoint x="360" y="2555" />
            </Array>
          </mxGeometry>
        </mxCell>
        <mxCell id="SDGDesWbccRSjYrfOrNV-169" value="1-Ambroise Ngagne TINE" style="rounded=0;whiteSpace=wrap;html=1;" parent="1" vertex="1">
          <mxGeometry x="101" y="2370" width="220" height="30" as="geometry" />
        </mxCell>
        <mxCell id="SDGDesWbccRSjYrfOrNV-170" value="Nombres de pays" style="rounded=0;whiteSpace=wrap;html=1;" parent="1" vertex="1">
          <mxGeometry x="455" y="2130" width="140" height="30" as="geometry" />
        </mxCell>
        <mxCell id="SDGDesWbccRSjYrfOrNV-212" value="" style="edgeStyle=orthogonalEdgeStyle;rounded=0;orthogonalLoop=1;jettySize=auto;html=1;" parent="1" source="SDGDesWbccRSjYrfOrNV-171" target="SDGDesWbccRSjYrfOrNV-211" edge="1">
          <mxGeometry relative="1" as="geometry" />
        </mxCell>
        <mxCell id="SDGDesWbccRSjYrfOrNV-171" value="Plus de détails" style="rounded=0;whiteSpace=wrap;html=1;fillColor=#e51400;strokeColor=#B20000;fontColor=#ffffff;" parent="1" vertex="1">
          <mxGeometry x="561.5" y="2410" width="130" height="30" as="geometry" />
        </mxCell>
        <mxCell id="SDGDesWbccRSjYrfOrNV-172" value="13" style="rounded=0;whiteSpace=wrap;html=1;" parent="1" vertex="1">
          <mxGeometry x="611.5" y="2130" width="80" height="30" as="geometry" />
        </mxCell>
        <mxCell id="SDGDesWbccRSjYrfOrNV-177" value="25" style="rounded=0;whiteSpace=wrap;html=1;" parent="1" vertex="1">
          <mxGeometry x="651.5" y="2170" width="40" height="30" as="geometry" />
        </mxCell>
        <mxCell id="SDGDesWbccRSjYrfOrNV-178" value="Nombre de remboursement" style="rounded=0;whiteSpace=wrap;html=1;" parent="1" vertex="1">
          <mxGeometry x="456" y="2210" width="180" height="30" as="geometry" />
        </mxCell>
        <mxCell id="SDGDesWbccRSjYrfOrNV-179" value="Reste" style="rounded=0;whiteSpace=wrap;html=1;" parent="1" vertex="1">
          <mxGeometry x="456" y="2250" width="184" height="30" as="geometry" />
        </mxCell>
        <mxCell id="SDGDesWbccRSjYrfOrNV-180" value="Capital" style="rounded=0;whiteSpace=wrap;html=1;" parent="1" vertex="1">
          <mxGeometry x="456" y="2290" width="84" height="30" as="geometry" />
        </mxCell>
        <mxCell id="SDGDesWbccRSjYrfOrNV-181" value="Montant actuel" style="rounded=0;whiteSpace=wrap;html=1;" parent="1" vertex="1">
          <mxGeometry x="456" y="2370" width="84" height="30" as="geometry" />
        </mxCell>
        <mxCell id="SDGDesWbccRSjYrfOrNV-182" value="Montant total prêté" style="rounded=0;whiteSpace=wrap;html=1;" parent="1" vertex="1">
          <mxGeometry x="456" y="2330" width="84" height="30" as="geometry" />
        </mxCell>
        <mxCell id="SDGDesWbccRSjYrfOrNV-184" value="50.000 DH" style="rounded=0;whiteSpace=wrap;html=1;" parent="1" vertex="1">
          <mxGeometry x="558" y="2290" width="132" height="30" as="geometry" />
        </mxCell>
        <mxCell id="SDGDesWbccRSjYrfOrNV-185" value="30.000 DH" style="rounded=0;whiteSpace=wrap;html=1;" parent="1" vertex="1">
          <mxGeometry x="561.5" y="2330" width="128.5" height="30" as="geometry" />
        </mxCell>
        <mxCell id="SDGDesWbccRSjYrfOrNV-186" value="45.000 DH" style="rounded=0;whiteSpace=wrap;html=1;" parent="1" vertex="1">
          <mxGeometry x="560" y="2370" width="130" height="30" as="geometry" />
        </mxCell>
        <mxCell id="SDGDesWbccRSjYrfOrNV-187" value="20" style="rounded=0;whiteSpace=wrap;html=1;" parent="1" vertex="1">
          <mxGeometry x="651.5" y="2210" width="40" height="30" as="geometry" />
        </mxCell>
        <mxCell id="SDGDesWbccRSjYrfOrNV-188" value="5" style="rounded=0;whiteSpace=wrap;html=1;" parent="1" vertex="1">
          <mxGeometry x="650" y="2250" width="40" height="30" as="geometry" />
        </mxCell>
        <mxCell id="SDGDesWbccRSjYrfOrNV-190" value="Traitements" style="rounded=0;whiteSpace=wrap;html=1;fillColor=#e51400;strokeColor=#B20000;fontColor=#ffffff;" parent="1" vertex="1">
          <mxGeometry x="94" y="2030" width="230" height="30" as="geometry" />
        </mxCell>
        <mxCell id="SDGDesWbccRSjYrfOrNV-191" value="Demandes d&#39;inscription" style="rounded=0;whiteSpace=wrap;html=1;fillColor=#008a00;strokeColor=#005700;fontColor=#ffffff;" parent="1" vertex="1">
          <mxGeometry x="95" y="2070" width="174" height="30" as="geometry" />
        </mxCell>
        <mxCell id="SDGDesWbccRSjYrfOrNV-192" value="Demandes de prêt" style="rounded=0;whiteSpace=wrap;html=1;fillColor=#d80073;strokeColor=#A50040;fontColor=#ffffff;" parent="1" vertex="1">
          <mxGeometry x="94" y="2110" width="174" height="30" as="geometry" />
        </mxCell>
        <mxCell id="SDGDesWbccRSjYrfOrNV-193" value="Déclarations de remboursement" style="rounded=0;whiteSpace=wrap;html=1;fillColor=#a20025;strokeColor=#6F0000;fontColor=#ffffff;" parent="1" vertex="1">
          <mxGeometry x="94" y="2150" width="174" height="30" as="geometry" />
        </mxCell>
        <mxCell id="SDGDesWbccRSjYrfOrNV-194" value="0" style="rounded=0;whiteSpace=wrap;html=1;" parent="1" vertex="1">
          <mxGeometry x="285" y="2150" width="40" height="30" as="geometry" />
        </mxCell>
        <mxCell id="SDGDesWbccRSjYrfOrNV-195" value="1" style="rounded=0;whiteSpace=wrap;html=1;" parent="1" vertex="1">
          <mxGeometry x="284" y="2110" width="40" height="30" as="geometry" />
        </mxCell>
        <mxCell id="SDGDesWbccRSjYrfOrNV-196" value="6" style="rounded=0;whiteSpace=wrap;html=1;" parent="1" vertex="1">
          <mxGeometry x="285" y="2070" width="40" height="30" as="geometry" />
        </mxCell>
        <mxCell id="SDGDesWbccRSjYrfOrNV-198" value="0" style="rounded=0;whiteSpace=wrap;html=1;" parent="1" vertex="1">
          <mxGeometry x="284" y="2190" width="40" height="30" as="geometry" />
        </mxCell>
        <mxCell id="SDGDesWbccRSjYrfOrNV-199" value="Déconnexion" style="rounded=1;whiteSpace=wrap;html=1;fillColor=#e51400;strokeColor=#B20000;fontColor=#ffffff;" parent="1" vertex="1">
          <mxGeometry x="597.5" y="1990" width="110" height="30" as="geometry" />
        </mxCell>
        <mxCell id="SDGDesWbccRSjYrfOrNV-200" value="Equipe de gestion" style="rounded=1;whiteSpace=wrap;html=1;fillColor=#e51400;strokeColor=#B20000;fontColor=#ffffff;" parent="1" vertex="1">
          <mxGeometry x="101" y="2340" width="220" height="30" as="geometry" />
        </mxCell>
        <mxCell id="SDGDesWbccRSjYrfOrNV-201" value="2-Papa Ousmane FAYE" style="rounded=0;whiteSpace=wrap;html=1;" parent="1" vertex="1">
          <mxGeometry x="101" y="2400" width="220" height="30" as="geometry" />
        </mxCell>
        <mxCell id="SDGDesWbccRSjYrfOrNV-202" value="3-xxxxxxxxxxxxxxxxxxx" style="rounded=0;whiteSpace=wrap;html=1;" parent="1" vertex="1">
          <mxGeometry x="101" y="2430" width="220" height="30" as="geometry" />
        </mxCell>
        <mxCell id="SDGDesWbccRSjYrfOrNV-205" value="Afficher la liste complète" style="rounded=1;whiteSpace=wrap;html=1;fillColor=#e51400;strokeColor=#B20000;fontColor=#ffffff;" parent="1" vertex="1">
          <mxGeometry x="210" y="2490" width="110" height="30" as="geometry" />
        </mxCell>
        <mxCell id="SDGDesWbccRSjYrfOrNV-206" value="En cliquant sur une personne, on voit ses coordonnées, son rôle et sa photo" style="rounded=0;whiteSpace=wrap;html=1;" parent="1" vertex="1">
          <mxGeometry x="100" y="2540" width="220" height="30" as="geometry" />
        </mxCell>
        <mxCell id="SDGDesWbccRSjYrfOrNV-211" value="En cliquant, se dirige vers un tableau de bord très détaillé" style="rounded=0;whiteSpace=wrap;html=1;" parent="1" vertex="1">
          <mxGeometry x="475" y="2490" width="220" height="30" as="geometry" />
        </mxCell>
        <mxCell id="SDGDesWbccRSjYrfOrNV-219" value="" style="curved=1;endArrow=classic;html=1;exitX=1;exitY=0.25;exitDx=0;exitDy=0;entryX=0.459;entryY=0.125;entryDx=0;entryDy=0;entryPerimeter=0;" parent="1" source="SDGDesWbccRSjYrfOrNV-195" target="pLTaCYsmvIqPrwOiqqX8-4" edge="1">
          <mxGeometry width="50" height="50" relative="1" as="geometry">
            <mxPoint x="230" y="2380" as="sourcePoint" />
            <mxPoint x="295.7142857142858" y="2620" as="targetPoint" />
            <Array as="points">
              <mxPoint x="390" y="2440" />
              <mxPoint x="410" y="2600" />
            </Array>
          </mxGeometry>
        </mxCell>
        <mxCell id="SDGDesWbccRSjYrfOrNV-220" value="Demandes d&#39;inscription" style="rounded=1;whiteSpace=wrap;html=1;fillColor=#e51400;strokeColor=#B20000;fontColor=#ffffff;" parent="1" vertex="1">
          <mxGeometry x="99" y="2810" width="220" height="30" as="geometry" />
        </mxCell>
        <mxCell id="SDGDesWbccRSjYrfOrNV-223" value="2- Prénom Nom du demandeur---------&lt;b&gt;Traiter&lt;/b&gt;-------&lt;b&gt;État&lt;/b&gt;------&lt;b&gt;Supprimer&lt;/b&gt;" style="rounded=0;whiteSpace=wrap;html=1;" parent="1" vertex="1">
          <mxGeometry x="100" y="2870" width="380" height="30" as="geometry" />
        </mxCell>
        <mxCell id="SDGDesWbccRSjYrfOrNV-224" value="1- Prénom Nom du demandeur---------&lt;b&gt;Traiter&lt;/b&gt;-------&lt;b&gt;État&lt;/b&gt;------&lt;b&gt;Supprimer&lt;/b&gt;" style="rounded=0;whiteSpace=wrap;html=1;" parent="1" vertex="1">
          <mxGeometry x="100" y="2840" width="380" height="30" as="geometry" />
        </mxCell>
        <mxCell id="SDGDesWbccRSjYrfOrNV-225" value="3- Prénom Nom---------&lt;b&gt;Traiter&lt;/b&gt;-------&lt;b&gt;État&lt;/b&gt;------&lt;b&gt;Supprimer&lt;/b&gt;" style="rounded=0;whiteSpace=wrap;html=1;" parent="1" vertex="1">
          <mxGeometry x="100" y="3080" width="310" height="30" as="geometry" />
        </mxCell>
        <mxCell id="SDGDesWbccRSjYrfOrNV-226" value="4- Prénom Nom du demandeur---------&lt;b&gt;Traiter&lt;/b&gt;-------&lt;b&gt;État&lt;/b&gt;------&lt;b&gt;Supprimer&lt;/b&gt;" style="rounded=0;whiteSpace=wrap;html=1;" parent="1" vertex="1">
          <mxGeometry x="100" y="2930" width="380" height="30" as="geometry" />
        </mxCell>
        <mxCell id="SDGDesWbccRSjYrfOrNV-232" value="Déclarations de remboursement" style="rounded=1;whiteSpace=wrap;html=1;fillColor=#e51400;strokeColor=#B20000;fontColor=#ffffff;" parent="1" vertex="1">
          <mxGeometry x="99" y="2990" width="220" height="30" as="geometry" />
        </mxCell>
        <mxCell id="SDGDesWbccRSjYrfOrNV-233" value="1- Prénom Nom---------&lt;b&gt;Traiter&lt;/b&gt;-------&lt;b&gt;État&lt;/b&gt;------&lt;b&gt;Supprimer&lt;/b&gt;" style="rounded=0;whiteSpace=wrap;html=1;" parent="1" vertex="1">
          <mxGeometry x="99" y="3020" width="311" height="30" as="geometry" />
        </mxCell>
        <mxCell id="SDGDesWbccRSjYrfOrNV-234" value="2- Prénom Nom---------&lt;b&gt;Traiter&lt;/b&gt;-------&lt;b&gt;État&lt;/b&gt;------&lt;b&gt;Supprimer&lt;/b&gt;" style="rounded=0;whiteSpace=wrap;html=1;" parent="1" vertex="1">
          <mxGeometry x="99" y="3050" width="311" height="30" as="geometry" />
        </mxCell>
        <mxCell id="SDGDesWbccRSjYrfOrNV-235" value="3- Prénom Nom du demandeur---------&lt;b&gt;Traiter&lt;/b&gt;-------&lt;b&gt;État&lt;/b&gt;------&lt;b&gt;Supprimer&lt;/b&gt;" style="rounded=0;whiteSpace=wrap;html=1;" parent="1" vertex="1">
          <mxGeometry x="100" y="2900" width="380" height="30" as="geometry" />
        </mxCell>
        <mxCell id="SDGDesWbccRSjYrfOrNV-236" value="4- Prénom Nom---------&lt;b&gt;Traiter&lt;/b&gt;-------&lt;b&gt;État&lt;/b&gt;------&lt;b&gt;Supprimer&lt;/b&gt;" style="rounded=0;whiteSpace=wrap;html=1;" parent="1" vertex="1">
          <mxGeometry x="100" y="3110" width="310" height="30" as="geometry" />
        </mxCell>
        <mxCell id="nPjhEHFaOwcL7UX8rbgF-3" value="Joindre une photo du passeport de la carte de séjour" style="rounded=0;whiteSpace=wrap;html=1;" parent="1" vertex="1">
          <mxGeometry x="149" y="1770" width="106" height="40" as="geometry" />
        </mxCell>
        <mxCell id="nPjhEHFaOwcL7UX8rbgF-4" value="Joindre un RIB- Facultatif" style="rounded=0;whiteSpace=wrap;html=1;" parent="1" vertex="1">
          <mxGeometry x="299" y="1770" width="106" height="40" as="geometry" />
        </mxCell>
        <mxCell id="6pL3NNsehdov1yfRttMt-1" value="Changer de mot de passe" style="rounded=0;whiteSpace=wrap;html=1;" parent="1" vertex="1">
          <mxGeometry x="629" y="240" width="78.5" height="30" as="geometry" />
        </mxCell>
        <mxCell id="6pL3NNsehdov1yfRttMt-2" value="Mot de passe oublié?&lt;br&gt;Contacter l&#39;administration!" style="rounded=0;whiteSpace=wrap;html=1;" parent="1" vertex="1">
          <mxGeometry x="587.5" y="280" width="120" height="60" as="geometry" />
        </mxCell>
        <mxCell id="6pL3NNsehdov1yfRttMt-3" value="Après vérification de données d&#39;inscription dans la partie administration, la validation provoque l&#39;envoie du mot de passe par email" style="rounded=0;whiteSpace=wrap;html=1;" parent="1" vertex="1">
          <mxGeometry x="110" y="1100" width="220" height="90" as="geometry" />
        </mxCell>
        <mxCell id="6pL3NNsehdov1yfRttMt-4" value="Montant dû" style="rounded=0;whiteSpace=wrap;html=1;" parent="1" vertex="1">
          <mxGeometry x="420" y="1590" width="130" height="20" as="geometry" />
        </mxCell>
        <mxCell id="6pL3NNsehdov1yfRttMt-6" value="600&amp;nbsp;" style="rounded=0;whiteSpace=wrap;html=1;" parent="1" vertex="1">
          <mxGeometry x="581.5" y="1590" width="40" height="20" as="geometry" />
        </mxCell>
        <mxCell id="6pL3NNsehdov1yfRttMt-7" value="DH" style="rounded=0;whiteSpace=wrap;html=1;" parent="1" vertex="1">
          <mxGeometry x="622.5" y="1590" width="27.5" height="20" as="geometry" />
        </mxCell>
        <mxCell id="6pL3NNsehdov1yfRttMt-8" value="Ajouter un remboursement" style="rounded=1;whiteSpace=wrap;html=1;fillColor=#008a00;strokeColor=#005700;fontColor=#ffffff;" parent="1" vertex="1">
          <mxGeometry x="496" y="1990" width="97" height="30" as="geometry" />
        </mxCell>
        <mxCell id="6pL3NNsehdov1yfRttMt-9" value="Cotisation" style="rounded=0;whiteSpace=wrap;html=1;" parent="1" vertex="1">
          <mxGeometry x="420" y="1430" width="80" height="20" as="geometry" />
        </mxCell>
        <mxCell id="6pL3NNsehdov1yfRttMt-10" value="200" style="rounded=0;whiteSpace=wrap;html=1;" parent="1" vertex="1">
          <mxGeometry x="580" y="1430" width="40" height="20" as="geometry" />
        </mxCell>
        <mxCell id="6pL3NNsehdov1yfRttMt-11" value="DH" style="rounded=0;whiteSpace=wrap;html=1;" parent="1" vertex="1">
          <mxGeometry x="620" y="1430" width="30" height="20" as="geometry" />
        </mxCell>
        <mxCell id="6pL3NNsehdov1yfRttMt-12" value="Expire le:" style="rounded=0;whiteSpace=wrap;html=1;" parent="1" vertex="1">
          <mxGeometry x="420" y="1450" width="80" height="20" as="geometry" />
        </mxCell>
        <mxCell id="6pL3NNsehdov1yfRttMt-13" value="31/12/2021" style="rounded=0;whiteSpace=wrap;html=1;" parent="1" vertex="1">
          <mxGeometry x="570" y="1450" width="80" height="20" as="geometry" />
        </mxCell>
        <mxCell id="6pL3NNsehdov1yfRttMt-14" value="Homme/Femme(liste déroulante)" style="rounded=1;whiteSpace=wrap;html=1;" parent="1" vertex="1">
          <mxGeometry x="270" y="730" width="226" height="30" as="geometry" />
        </mxCell>
        <mxCell id="Hya-TPy_c2ZP0WOWe1SL-1" value="Déclarations de cotisation" style="rounded=0;whiteSpace=wrap;html=1;fillColor=#76608a;strokeColor=#432D57;fontColor=#ffffff;" parent="1" vertex="1">
          <mxGeometry x="94" y="2190" width="174" height="30" as="geometry" />
        </mxCell>
        <mxCell id="Hya-TPy_c2ZP0WOWe1SL-2" value="Déclarations de cotisation" style="rounded=1;whiteSpace=wrap;html=1;fillColor=#e51400;strokeColor=#B20000;fontColor=#ffffff;" parent="1" vertex="1">
          <mxGeometry x="100" y="3170" width="220" height="30" as="geometry" />
        </mxCell>
        <mxCell id="Hya-TPy_c2ZP0WOWe1SL-3" value="1- Prénom Nom---------&lt;b&gt;Traiter&lt;/b&gt;-------&lt;b&gt;État&lt;/b&gt;------&lt;b&gt;Supprimer&lt;/b&gt;" style="rounded=0;whiteSpace=wrap;html=1;" parent="1" vertex="1">
          <mxGeometry x="100" y="3200" width="311" height="30" as="geometry" />
        </mxCell>
        <mxCell id="Hya-TPy_c2ZP0WOWe1SL-4" value="2- Prénom Nom---------&lt;b&gt;Traiter&lt;/b&gt;-------&lt;b&gt;État&lt;/b&gt;------&lt;b&gt;Supprimer&lt;/b&gt;" style="rounded=0;whiteSpace=wrap;html=1;" parent="1" vertex="1">
          <mxGeometry x="100" y="3230" width="311" height="30" as="geometry" />
        </mxCell>
        <mxCell id="Hya-TPy_c2ZP0WOWe1SL-5" value="3- Prénom Nom---------&lt;b&gt;Traiter&lt;/b&gt;-------&lt;b&gt;État&lt;/b&gt;------&lt;b&gt;Supprimer&lt;/b&gt;" style="rounded=0;whiteSpace=wrap;html=1;" parent="1" vertex="1">
          <mxGeometry x="101" y="3260" width="310" height="30" as="geometry" />
        </mxCell>
        <mxCell id="Hya-TPy_c2ZP0WOWe1SL-6" value="4- Prénom Nom---------&lt;b&gt;Traiter&lt;/b&gt;-------&lt;b&gt;État&lt;/b&gt;------&lt;b&gt;Supprimer&lt;/b&gt;" style="rounded=0;whiteSpace=wrap;html=1;" parent="1" vertex="1">
          <mxGeometry x="101" y="3290" width="310" height="30" as="geometry" />
        </mxCell>
        <mxCell id="Hya-TPy_c2ZP0WOWe1SL-7" value="Ajouter une cotisation" style="rounded=1;whiteSpace=wrap;html=1;fillColor=#0050ef;strokeColor=#001DBC;fontColor=#ffffff;" parent="1" vertex="1">
          <mxGeometry x="336.5" y="1990" width="85" height="50" as="geometry" />
        </mxCell>
        <mxCell id="EzgY_Jlq-dmY2WDkP3PC-1" value="Dépenses" style="rounded=0;whiteSpace=wrap;html=1;fillColor=#b1ddf0;strokeColor=#10739e;" parent="1" vertex="1">
          <mxGeometry x="95" y="2270" width="174" height="30" as="geometry" />
        </mxCell>
        <mxCell id="EzgY_Jlq-dmY2WDkP3PC-2" value="0" style="rounded=0;whiteSpace=wrap;html=1;" parent="1" vertex="1">
          <mxGeometry x="284" y="2230" width="40" height="30" as="geometry" />
        </mxCell>
        <mxCell id="pLTaCYsmvIqPrwOiqqX8-1" value="Retards de paiement" style="rounded=0;whiteSpace=wrap;html=1;fillColor=#b1ddf0;strokeColor=#10739e;" vertex="1" parent="1">
          <mxGeometry x="94" y="2230" width="174" height="30" as="geometry" />
        </mxCell>
        <mxCell id="pLTaCYsmvIqPrwOiqqX8-2" value="0" style="rounded=0;whiteSpace=wrap;html=1;" vertex="1" parent="1">
          <mxGeometry x="285" y="2270" width="40" height="30" as="geometry" />
        </mxCell>
        <mxCell id="pLTaCYsmvIqPrwOiqqX8-3" value="Ajouter une dépense" style="rounded=1;whiteSpace=wrap;html=1;fillColor=#a20025;strokeColor=#6F0000;fontColor=#ffffff;" vertex="1" parent="1">
          <mxGeometry x="430" y="1990" width="60" height="50" as="geometry" />
        </mxCell>
        <mxCell id="pLTaCYsmvIqPrwOiqqX8-4" value="On se redirige dans la gestion automatique&amp;nbsp;&lt;br&gt;des prê" style="ellipse;shape=cloud;whiteSpace=wrap;html=1;fillColor=#76608a;strokeColor=#432D57;fontColor=#ffffff;" vertex="1" parent="1">
          <mxGeometry x="54" y="2610" width="370" height="80" as="geometry" />
        </mxCell>
        <mxCell id="pLTaCYsmvIqPrwOiqqX8-6" value="" style="curved=1;endArrow=classic;html=1;exitX=1;exitY=0.5;exitDx=0;exitDy=0;entryX=1;entryY=0.5;entryDx=0;entryDy=0;" edge="1" parent="1" source="SDGDesWbccRSjYrfOrNV-196" target="SDGDesWbccRSjYrfOrNV-220">
          <mxGeometry width="50" height="50" relative="1" as="geometry">
            <mxPoint x="340" y="2190" as="sourcePoint" />
            <mxPoint x="440" y="2160" as="targetPoint" />
            <Array as="points">
              <mxPoint x="350" y="2190" />
              <mxPoint x="380" y="2300" />
              <mxPoint x="470" y="2720" />
            </Array>
          </mxGeometry>
        </mxCell>
        <mxCell id="pLTaCYsmvIqPrwOiqqX8-7" value="VOIR LA POSSIBILITE D&#39;AVOIR&lt;br&gt;UN SUPERADMIN&lt;br&gt;ou L&#39;UTILISATEUR &lt;b&gt;&lt;font style=&quot;font-size: 30px&quot;&gt;0&lt;/font&gt;&lt;/b&gt;" style="ellipse;shape=cloud;whiteSpace=wrap;html=1;fillColor=#fa6800;strokeColor=#C73500;fontColor=#ffffff;" vertex="1" parent="1">
          <mxGeometry x="450" y="2550" width="250" height="150" as="geometry" />
        </mxCell>
        <mxCell id="pLTaCYsmvIqPrwOiqqX8-8" value="Date dernière mise à jour: 21/04/2021" style="rounded=0;whiteSpace=wrap;html=1;strokeColor=#432D57;fontColor=#ffffff;fillColor=#666666;" vertex="1" parent="1">
          <mxGeometry x="444" y="1620" width="210" height="20" as="geometry" />
        </mxCell>
      </root>
    </mxGraphModel>
  </diagram>
</mxfile>
